PathFileType	4	(X/Y/Z)	Walk4.trc
DataRate	CameraRate	NumFrames	NumMarkers	Units	OrigDataRate	OrigDataStartFrame	OrigNumFrames
200.000000	200.000000	4	61	mm	200.000000	837	877
Frame#	Times		RCAR		LTH3		RTH2		LBHD		LWRU		LUA1		LFA1		LCAR		RFA1		LElbow		RTB3		RTB1		RToe		RTB2		RMT5		RBHD		LWRR		LTH2		LElbowM		RPSI		C7		RLFC		RMT1		LTH4		STRN		LASI		RLMAL		RBack		T10		LTH1		LPSI		CLAV		LLFC		RUA1		LACR1		RCAL		LTB3		RElbowM		RTH3		LCAL		RTH1		RFHD		RElbow		LTB1		LMMAL		LTB2		LFHD		RTH4		RASI		LMFC		LTB4		RMMAL		LMT5		RMFC		RACR1		RWRR		RWRU		LLMAL		RTB4		LToe		LMT1
			X1	Y1	Z1	X2	Y2	Z2	X3	Y3	Z3	X4	Y4	Z4	X5	Y5	Z5	X6	Y6	Z6	X7	Y7	Z7	X8	Y8	Z8	X9	Y9	Z9	X10	Y10	Z10	X11	Y11	Z11	X12	Y12	Z12	X13	Y13	Z13	X14	Y14	Z14	X15	Y15	Z15	X16	Y16	Z16	X17	Y17	Z17	X18	Y18	Z18	X19	Y19	Z19	X20	Y20	Z20	X21	Y21	Z21	X22	Y22	Z22	X23	Y23	Z23	X24	Y24	Z24	X25	Y25	Z25	X26	Y26	Z26	X27	Y27	Z27	X28	Y28	Z28	X29	Y29	Z29	X30	Y30	Z30	X31	Y31	Z31	X32	Y32	Z32	X33	Y33	Z33	X34	Y34	Z34	X35	Y35	Z35	X36	Y36	Z36	X37	Y37	Z37	X38	Y38	Z38	X39	Y39	Z39	X40	Y40	Z40	X41	Y41	Z41	X42	Y42	Z42	X43	Y43	Z43	X44	Y44	Z44	X45	Y45	Z45	X46	Y46	Z46	X47	Y47	Z47	X48	Y48	Z48	X49	Y49	Z49	X50	Y50	Z50	X51	Y51	Z51	X52	Y52	Z52	X53	Y53	Z53	X54	Y54	Z54	X55	Y55	Z55	X56	Y56	Z56	X57	Y57	Z57	X58	Y58	Z58	X59	Y59	Z59	X60	Y60	Z60	X61	Y61	Z61

837	4.185	872.56	852.69	309.36	804.23	617.94	-157.65	922.35	738.71	179.02	762	1652.5	-102.52	858.14	876.5	-316.96	788.43	1305.3	-290.13	813.65	1003.1	-329.69	935.11	845.2	-317.08	765.5	1007	298.26	775.91	1150	-320.93	776.73	237.49	114.2	883.59	388.68	135.88	824.67	49.926	144.48	798.35	320.88	185.1	730.78	63.269	183.23	770.54	1664.3	38.918	919.84	894.45	-263.21	871.48	714.31	-149.1	735.42	1135.8	-256.37	635.04	1033.3	33.604	736.35	1523.9	-27.786	879.37	519.38	199.83	784.39	57.189	116.33	803.97	709.09	-174.92	913.91	1264	-17.476	846.29	1044.2	-142.15	670.34	151.41	145.37	654.59	1439.7	101.85	633.53	1300.1	-26.304	810.94	798.46	-187.63	635.63	1030.8	-45.051	868.2	1437.4	-22.029	795.2	514.38	-145.44	769.06	1307.6	235.65	812.72	1475.6	-189.94	613.13	139.85	86.321	782.94	193.43	-62.63	710.04	1136.5	196.17	874.61	630.9	203.73	658.82	28.508	-65.803	830.37	815.04	200.42	946.3	1698.1	4.6332	732.55	1154.5	272.46	824.25	375.08	-65.735	745.91	90.536	-21.827	786.42	290.64	-136.56	942.35	1693.4	-71.921	852.31	731.08	213.66	842.22	1054.7	140.64	799.82	521.12	-15.835	804.68	287.41	-63.01	722.11	156.96	73.714	819.35	22.268	-138.62	914.94	528.2	71.758	807.24	1477.4	136.48	868.19	890.26	254.12	809.09	876.96	301.52	721.77	70.539	-105.28	832.03	311.84	123.5	920.08	31.696	-67.145	866.17	39.686	-52.99
838	4.19	872.94	852.05	310.55	806.37	617.91	-157.76	928.38	739.88	178.69	766.98	1652.5	-102.43	867.62	877.61	-317.74	794.44	1305.7	-290.44	822.06	1003.8	-330.54	945	847.14	-318.03	766.95	1007	298.44	783	1150.4	-321.71	790.28	235.76	114.41	893.77	389.25	136.01	842.62	49.7	145.76	809.84	319.78	185.31	748.22	61.089	184.03	775.43	1664.2	39.013	929.27	896.16	-264.09	874.36	713.75	-149.16	742.51	1135.7	-257.26	639.75	1033.4	33.523	741.24	1523.9	-27.832	887.21	520.1	199.7	802.26	56.053	117.38	806.81	709.05	-174.97	918.67	1264	-17.493	851.44	1044.7	-143.01	685.72	147.38	145.51	659.24	1439.7	101.61	638.35	1300.2	-26.464	815.14	797.87	-187.37	640.31	1031	-45.127	873.03	1437.4	-21.933	796.54	514.29	-145.53	772.47	1307.6	235.71	817.84	1475.8	-189.84	628.96	134.13	86.281	783.27	193.32	-62.683	713.05	1136.7	195.93	881.59	631.76	203.77	658.87	28.562	-65.787	836.02	815.53	200.48	951.21	1698.1	4.8604	735.12	1154.6	272.26	825.03	374.85	-65.79	745.9	90.566	-21.806	787.03	290.51	-136.63	947.32	1693.4	-71.7	858.5	732.96	214.55	847.13	1054.7	140.25	801.28	520.96	-15.939	805.23	287.26	-63.064	737.72	153.93	73.949	819.38	22.238	-138.61	922.09	529.22	71.55	811.87	1477.3	136.64	869.26	889.59	255.23	809.67	876.64	302.03	721.79	70.584	-105.28	843.95	311.31	123.68	920.1	31.686	-67.145	866.15	39.668	-52.99
839	4.195	873.35	851.43	311.73	808.5	617.88	-157.87	934.33	740.97	178.35	771.97	1652.5	-102.33	877.06	878.7	-318.48	800.42	1306.1	-290.73	830.45	1004.5	-331.36	954.86	849.09	-318.95	768.43	1007	298.62	790.07	1150.8	-322.47	803.9	234.02	114.68	903.89	389.8	136.16	860.66	49.57	147.12	821.32	318.67	185.54	765.79	58.969	184.92	780.33	1664.2	39.121	938.67	897.86	-264.94	877.25	713.16	-149.22	749.59	1135.6	-258.12	644.47	1033.5	33.448	746.14	1523.9	-27.861	894.91	520.76	199.57	820.24	54.998	118.51	809.66	709	-175.02	923.45	1263.9	-17.492	856.52	1045.1	-143.75	701.25	143.35	145.71	663.91	1439.8	101.39	643.19	1300.3	-26.587	819.29	797.28	-187.13	644.99	1031.2	-45.184	877.88	1437.4	-21.83	797.88	514.2	-145.62	775.9	1307.5	235.77	822.95	1475.9	-189.73	645.04	128.36	86.308	783.61	193.22	-62.735	716.08	1136.8	195.7	888.46	632.56	203.79	658.92	28.619	-65.769	841.58	815.96	200.55	956.14	1698	5.0938	737.73	1154.7	272.07	825.82	374.62	-65.843	745.9	90.597	-21.788	787.64	290.39	-136.7	952.31	1693.4	-71.473	864.69	734.66	215.34	852.01	1054.7	139.93	802.75	520.79	-16.045	805.78	287.11	-63.116	753.49	150.89	74.246	819.41	22.21	-138.61	929.09	530.15	71.316	816.52	1477.2	136.81	870.38	888.95	256.35	810.27	876.33	302.52	721.81	70.633	-105.28	855.86	310.76	123.91	920.11	31.675	-67.145	866.12	39.648	-52.99
840	4.2	873.79	850.82	312.91	810.64	617.84	-157.98	940.2	741.97	178	776.96	1652.5	-102.22	886.46	879.79	-319.18	806.39	1306.5	-291	838.82	1005.2	-332.16	964.67	851.02	-319.83	769.95	1007.1	298.8	797.12	1151.1	-323.2	817.6	232.27	115.01	913.95	390.33	136.32	878.78	49.548	148.56	832.78	317.55	185.8	783.48	56.924	185.9	785.25	1664.1	39.239	948.04	899.56	-265.74	880.13	712.57	-149.29	756.65	1135.5	-258.95	649.19	1033.5	33.382	751.05	1523.9	-27.873	902.45	521.36	199.42	838.33	54.036	119.71	812.51	708.94	-175.06	928.23	1263.9	-17.475	861.51	1045.3	-144.36	716.94	139.31	145.99	668.6	1439.7	101.2	648.03	1300.3	-26.674	823.35	796.74	-186.96	649.68	1031.3	-45.224	882.74	1437.3	-21.719	799.22	514.12	-145.71	779.37	1307.4	235.85	828.06	1475.9	-189.61	661.35	122.58	86.411	783.95	193.12	-62.788	719.13	1137	195.48	895.2	633.3	203.78	658.97	28.68	-65.75	847.03	816.34	200.65	961.08	1697.9	5.3334	740.36	1154.8	271.9	826.62	374.39	-65.899	745.91	90.629	-21.774	788.25	290.27	-136.77	957.3	1693.3	-71.238	870.88	736.11	215.98	856.87	1054.6	139.67	804.23	520.63	-16.155	806.35	286.96	-63.168	769.4	147.88	74.608	819.43	22.184	-138.6	935.93	530.98	71.053	821.18	1477.1	136.99	871.54	888.33	257.46	810.9	876.02	303	721.83	70.685	-105.28	867.74	310.19	124.18	920.13	31.664	-67.147	866.1	39.626	-52.99
